<svg version="1.1" id="Layer_1" xmlns="http://www.w3.org/2000/svg" xmlns:xlink="http://www.w3.org/1999/xlink" x="0px" y="0px"
	 width="100%" viewBox="0 0 736 768" enable-background="new 0 0 736 768" xml:space="preserve">
<path fill="#000000" opacity="1.000000" stroke="none" 
	d="
M1.000000,417.468658 
	C2.977398,415.026703 2.424336,412.310608 3.063173,409.945679 
	C13.110234,372.752289 36.142895,347.968628 73.227303,336.728973 
	C76.430168,335.758270 78.225014,334.155243 79.355469,330.986389 
	C99.435768,274.697876 133.451904,228.507874 180.635086,191.975922 
	C187.211227,186.884308 194.228149,182.350143 201.149231,177.719666 
	C206.722061,173.991165 206.847137,173.077881 201.079956,169.717148 
	C181.700272,158.423996 166.778442,142.915894 156.711853,122.848808 
	C149.046066,107.567574 145.385117,91.259697 145.325119,74.224495 
	C145.271423,58.979313 157.272400,46.767696 171.886551,46.660221 
	C188.071793,46.541195 199.728439,58.058765 200.313324,74.513695 
	C201.059006,95.492493 210.603958,111.302994 228.683640,121.944267 
	C234.500748,125.368088 240.923859,127.125687 247.476288,128.440323 
	C249.451172,128.836548 251.604431,129.077408 253.094482,127.363136 
	C254.715088,125.498634 253.515869,123.567055 252.675903,121.779076 
	C245.497940,106.499908 241.543793,90.452354 241.766052,73.547920 
	C241.945724,59.882946 252.542053,48.197048 265.533539,46.734001 
	C279.848328,45.121937 292.932831,53.974670 295.858429,67.722481 
	C297.132202,73.708130 297.040222,79.982285 298.284912,85.976654 
	C303.365265,110.443558 325.618958,128.766586 350.582428,128.644806 
	C379.794647,128.502289 408.703217,130.517883 437.197327,137.462601 
	C466.543793,144.615036 494.297638,155.625900 520.209717,171.089447 
	C574.881042,203.715622 615.686584,248.922699 642.267517,306.825470 
	C645.944092,314.834351 649.055664,323.110443 652.212830,331.345642 
	C653.336975,334.277863 655.090454,335.775604 658.101685,336.702759 
	C699.050415,349.310425 723.434082,377.165161 729.959656,419.102325 
	C737.561462,467.956665 707.378601,514.396973 659.764526,528.521545 
	C655.145935,529.891602 653.006836,532.331787 651.463867,536.595947 
	C633.991455,584.884155 606.000244,626.165771 567.601868,660.182068 
	C526.849365,696.283875 479.673126,719.871460 426.273743,730.858826 
	C398.717468,736.528687 370.841187,738.433655 342.873932,736.103333 
	C279.080780,730.787903 221.935440,708.471924 172.405945,667.507996 
	C130.239822,632.633911 99.712723,589.459595 80.696617,538.182007 
	C78.695686,532.786499 75.778564,529.775940 69.978546,527.888123 
	C37.461880,517.304565 16.229258,495.036194 5.037023,462.974518 
	C3.514572,458.613251 2.659574,454.018982 1.247766,449.266296 
	C1.000000,438.645782 1.000000,428.291534 1.000000,417.468658 
M482.273163,231.616272 
	C483.851074,242.069229 483.683350,252.544922 482.045502,262.939392 
	C477.524963,291.628418 464.835480,316.076324 442.643433,334.979309 
	C414.377075,359.056305 381.330261,368.921234 344.998627,361.692444 
	C295.246521,351.793427 263.882172,321.116821 251.214661,271.767273 
	C248.541687,261.353943 247.417496,250.634659 249.144196,240.091583 
	C251.137131,227.922729 262.853180,219.056793 275.403534,218.771164 
	C287.569244,218.494308 298.753571,227.016388 302.293488,238.818100 
	C303.998718,244.503052 303.293701,250.335419 304.231995,256.094574 
	C309.555481,288.768921 339.811646,312.286682 372.452789,308.602356 
	C409.529999,304.417297 435.124481,268.269958 426.437012,231.871429 
	C419.862122,204.324142 396.485504,186.672882 372.586456,184.467941 
	C355.814331,182.920547 338.996216,184.672287 322.396423,187.612610 
	C285.405487,194.164841 251.643860,208.430557 221.166183,230.417328 
	C183.968475,257.251923 156.002609,291.584198 137.423920,333.543884 
	C130.726303,348.670349 125.913376,364.424133 122.213493,380.498199 
	C120.998253,385.777740 118.478172,388.121765 113.126152,387.958191 
	C108.969170,387.831116 104.799492,388.199310 100.634361,388.243530 
	C89.765701,388.358856 80.012146,391.480133 71.706429,398.694031 
	C58.553406,410.118042 52.960743,424.417725 56.494717,441.542114 
	C60.052086,458.779938 70.719254,470.069489 87.413742,475.739044 
	C95.697670,478.552338 104.251488,477.863556 112.680740,477.616882 
	C118.531403,477.445679 121.139511,479.594604 122.091797,485.127258 
	C122.822182,489.370667 124.223183,493.501434 125.372169,497.669556 
	C140.264297,551.692749 169.725967,596.249023 214.112656,630.247620 
	C269.253876,672.483765 331.947998,688.483398 400.685486,679.394165 
	C435.943237,674.732056 468.644135,662.206116 498.750244,643.104797 
	C536.174438,619.360352 565.031006,587.729492 585.973694,548.751221 
	C596.927795,528.363464 604.276306,506.648468 609.648193,484.237061 
	C610.771729,479.549347 612.776062,477.379608 617.763062,477.726898 
	C622.403870,478.050079 627.091980,477.779358 631.756592,477.662933 
	C658.508118,476.995239 676.048645,454.735168 675.907043,433.187744 
	C675.764160,411.450989 661.179199,393.434540 639.774414,389.110870 
	C632.499146,387.641266 625.158813,388.241791 617.870361,387.807892 
	C612.425537,387.483765 610.686096,385.322327 609.503479,380.429810 
	C598.312866,334.131561 577.128723,293.225250 543.545044,259.039337 
	C526.603210,241.793655 507.587860,227.332840 486.486023,215.592682 
	C484.693756,214.595535 482.844208,212.554382 480.586548,214.037033 
	C478.145172,215.640381 479.843140,217.927887 480.218781,219.945404 
	C480.887451,223.536865 481.549988,227.129471 482.273163,231.616272 
z"/>
<path fill="#000000" opacity="1.000000" stroke="none" 
	d="
M448.914917,580.931274 
	C427.033966,600.121338 402.085968,611.144165 373.186829,612.356750 
	C324.246613,614.410156 286.523590,594.481262 259.942352,553.564941 
	C248.934036,536.619934 257.543213,515.488525 276.729492,511.110626 
	C288.016632,508.535156 299.224976,512.936829 305.737488,523.023010 
	C311.401581,531.795288 317.877411,539.704956 326.592255,545.595215 
	C359.137939,567.592285 401.276550,559.462952 423.144867,526.801208 
	C426.906921,521.182373 430.662048,515.866028 437.043121,512.943604 
	C447.907562,507.967896 461.098907,510.516998 469.136902,519.275696 
	C477.311127,528.182861 478.741089,541.341003 472.469635,552.172913 
	C466.249420,562.916321 458.364960,572.348816 448.914917,580.931274 
z"/>
<path fill="#000000" opacity="1.000000" stroke="none" 
	d="
M431.738861,388.748016 
	C473.184967,347.587738 541.437073,363.797638 558.569702,418.621613 
	C561.401184,427.682007 563.324036,436.935822 561.570312,446.579102 
	C559.361023,458.727509 548.840210,469.170868 534.168335,468.812653 
	C519.615051,468.457336 509.019897,458.035767 507.578491,443.982086 
	C507.037170,438.704193 506.263214,433.456451 502.849823,428.969940 
	C497.702759,422.204712 489.547119,419.146210 480.680450,421.580048 
	C472.753876,423.755829 468.242493,429.422211 466.293732,437.320068 
	C465.256744,441.522766 465.650787,445.917206 464.240936,450.074890 
	C460.732819,460.420471 449.924438,470.809448 433.597565,468.352692 
	C421.163147,466.481628 410.876129,455.285889 410.748718,442.480164 
	C410.544556,421.961731 417.335785,404.022522 431.738861,388.748016 
z"/>
<path fill="#000000" opacity="1.000000" stroke="none" 
	d="
M265.857971,442.791718 
	C265.137878,429.476929 256.585083,420.491730 245.063019,420.586700 
	C233.474014,420.682220 224.927917,429.678345 224.303940,442.439026 
	C223.575745,457.330902 210.954697,469.286896 196.431931,468.842346 
	C181.085999,468.372559 169.683670,456.536224 169.651703,441.042755 
	C169.571732,402.283600 198.003708,369.808136 236.571579,365.888580 
	C279.125397,361.563995 313.057739,390.294769 319.434052,427.589844 
	C320.383057,433.140564 321.333862,438.636871 320.501099,444.355835 
	C318.388550,458.863922 307.820343,468.618408 293.584320,468.884277 
	C280.096527,469.136169 268.941040,459.395355 266.399689,445.157623 
	C266.282867,444.503326 266.082947,443.863861 265.857971,442.791718 
z"/>
</svg>